<?xml version="1.0" encoding="utf-8"?>
<!-- Generator: Adobe Illustrator 22.0.0, SVG Export Plug-In . SVG Version: 6.00 Build 0)  -->
<svg version="1.1" id="Layer_1" xmlns="http://www.w3.org/2000/svg" xmlns:xlink="http://www.w3.org/1999/xlink" x="0px" y="0px"
	 viewBox="0 0 61 61" style="enable-background:new 0 0 61 61;" xml:space="preserve">
<style type="text/css">
	.st0{clip-path:url(#SVGID_2_);}
	.st1{clip-path:url(#SVGID_4_);fill:#C50000;}
	.st2{clip-path:url(#SVGID_6_);}
	.st3{clip-path:url(#SVGID_8_);fill:#FFFFFF;}
</style>
<g>
	<g>
		<defs>
			<circle id="SVGID_1_" cx="30.5" cy="30.5" r="30.5"/>
		</defs>
		<clipPath id="SVGID_2_">
			<use xlink:href="#SVGID_1_"  style="overflow:visible;"/>
		</clipPath>
		<g class="st0">
			<defs>
				<rect id="SVGID_3_" x="-295" y="-2552" width="1440" height="6000"/>
			</defs>
			<clipPath id="SVGID_4_">
				<use xlink:href="#SVGID_3_"  style="overflow:visible;"/>
			</clipPath>
			<rect x="-5" y="-5" class="st1" width="71" height="71"/>
		</g>
	</g>
	<g>
		<defs>
			<path id="SVGID_5_" d="M26.9,20.7l-7.7,5.8h-5.8v8.7H19l8,6c0.3,0.2,0.5,0.1,0.5-0.3V21C27.5,20.6,27.2,20.5,26.9,20.7 M31.9,24
				c-0.4,0.3-0.6,0.8-0.3,1.2c1.3,1.5,2,3.4,2,5.3c0,2-0.7,3.9-2,5.3c-0.3,0.4,0,0.9,0.3,1.2c0.2,0.1,0.4,0.2,0.6,0.2
				c0.2,0,0.5-0.1,0.7-0.3c1.6-1.8,2.5-4.1,2.5-6.4s-0.9-4.6-2.5-6.4C32.8,23.7,32.2,23.7,31.9,24 M37.9,20.2
				c-0.3-0.4-0.9-0.5-1.3-0.2c-0.4,0.3-0.6,0.9-0.3,1.3c2.1,2.6,3.2,5.9,3.2,9.3c0,3.4-1.1,6.6-3.2,9.3c-0.3,0.4,0,1,0.3,1.3
				c0.2,0.1,0.5,0.1,0.6,0.1c0.2,0,0.5-0.1,0.6-0.3c2.3-2.9,3.6-6.6,3.6-10.3C41.5,26.8,40.3,23.1,37.9,20.2 M42.6,16.2
				c-0.3-0.4-0.9-0.5-1.3-0.3c-0.4,0.3-0.6,1-0.3,1.3c3,3.8,4.5,8.4,4.5,13.3c0,4.9-1.6,9.5-4.5,13.3c-0.3,0.4-0.1,1,0.3,1.3
				c0.2,0.1,0.5,0.1,0.6,0.1c0.2,0,0.5-0.1,0.7-0.3c3.2-4.1,4.9-9.1,4.9-14.3C47.5,25.3,45.8,20.3,42.6,16.2"/>
		</defs>
		<clipPath id="SVGID_6_">
			<use xlink:href="#SVGID_5_"  style="overflow:visible;"/>
		</clipPath>
		<g class="st2">
			<defs>
				<rect id="SVGID_7_" x="-295.5" y="-2551.2" width="1440" height="6000"/>
			</defs>
			<clipPath id="SVGID_8_">
				<use xlink:href="#SVGID_7_"  style="overflow:visible;"/>
			</clipPath>
			<rect x="8.5" y="10.8" class="st3" width="44" height="39.4"/>
		</g>
	</g>
</g>
</svg>
