<?xml version="1.0" encoding="utf-8"?>
<!-- Generator: Adobe Illustrator 22.0.1, SVG Export Plug-In . SVG Version: 6.00 Build 0)  -->
<svg version="1.1" id="Layer_1" xmlns="http://www.w3.org/2000/svg" xmlns:xlink="http://www.w3.org/1999/xlink" x="0px" y="0px"
	 viewBox="0 0 675.3 252.7" style="enable-background:new 0 0 675.3 252.7;" xml:space="preserve">
<style type="text/css">
	.st0{fill:#7F7F7F;}
	.st1{fill:none;stroke:#FECD07;stroke-width:10;stroke-miterlimit:10;}
</style>
<g>
	<path d="M64.8,31.4v60.3h-9.1V31.4H64.8z"/>
	<path d="M76.4,91.7V27.3l44,46V31.4h9.1v64l-44-45.9v42.2H76.4z"/>
	<path d="M157.7,39.9v51.8h-9.1V39.9h-13.9v-8.6h36.8v8.6H157.7z"/>
	<path d="M210.1,39.9h-24.2v14.5h23.5V63h-23.5v20.2h24.2v8.6h-33.3V31.4h33.3V39.9z"/>
	<path d="M239.6,66l18.7,25.7h-11.1L229.9,67h-1.6v24.7h-9.1V31.4h10.7c8,0,13.7,1.5,17.3,4.5c3.9,3.3,5.9,7.7,5.9,13.2
		c0,4.3-1.2,7.9-3.7,11C246.8,63.1,243.6,65.1,239.6,66z M228.2,59.1h2.9c8.6,0,12.9-3.3,12.9-9.9c0-6.2-4.2-9.3-12.6-9.3h-3.2V59.1
		z"/>
	<path d="M298.5,40.3l-7.4,4.4c-1.4-2.4-2.7-4-3.9-4.7c-1.3-0.8-3-1.2-5-1.2c-2.5,0-4.6,0.7-6.3,2.1c-1.7,1.4-2.5,3.2-2.5,5.3
		c0,2.9,2.2,5.3,6.6,7.1l6,2.5c4.9,2,8.5,4.4,10.7,7.2c2.3,2.9,3.4,6.3,3.4,10.5c0,5.5-1.8,10.1-5.5,13.8c-3.7,3.6-8.3,5.5-13.9,5.5
		c-5.2,0-9.6-1.5-13-4.6c-3.4-3.1-5.5-7.5-6.3-13.1l9.2-2c0.4,3.5,1.1,6,2.2,7.3c1.9,2.6,4.6,3.9,8.2,3.9c2.8,0,5.2-1,7.1-2.9
		c1.9-1.9,2.8-4.3,2.8-7.2c0-1.2-0.2-2.2-0.5-3.2c-0.3-1-0.8-1.9-1.5-2.7c-0.7-0.8-1.6-1.6-2.7-2.3c-1.1-0.7-2.4-1.4-3.9-2.1
		l-5.8-2.4c-8.3-3.5-12.4-8.6-12.4-15.3c0-4.5,1.7-8.3,5.2-11.4c3.5-3.1,7.8-4.6,12.9-4.6C289.2,30.2,294.6,33.6,298.5,40.3z"/>
	<path d="M341.5,39.9h-24.2v14.5h23.5V63h-23.5v20.2h24.2v8.6h-33.3V31.4h33.3V39.9z"/>
	<path d="M395.1,34.6v10.8c-5.3-4.4-10.7-6.6-16.3-6.6c-6.2,0-11.4,2.2-15.7,6.7c-4.3,4.4-6.4,9.8-6.4,16.2c0,6.3,2.1,11.7,6.4,16
		c4.3,4.3,9.5,6.5,15.7,6.5c3.2,0,5.9-0.5,8.2-1.6c1.2-0.5,2.5-1.2,3.9-2.1c1.3-0.9,2.8-2,4.2-3.2v11c-5.2,2.9-10.7,4.4-16.4,4.4
		c-8.6,0-16-3-22.1-9c-6.1-6.1-9.1-13.4-9.1-22c0-7.7,2.5-14.5,7.6-20.5c6.2-7.4,14.3-11.1,24.3-11.1
		C384.8,30.2,390.1,31.7,395.1,34.6z"/>
	<path d="M420.4,39.9v51.8h-9.1V39.9h-13.9v-8.6h36.8v8.6H420.4z"/>
	<path d="M448.5,31.4v60.3h-9.1V31.4H448.5z"/>
	<path d="M457.1,61.2c0-8.5,3.1-15.8,9.3-21.9c6.2-6.1,13.6-9.1,22.3-9.1c8.6,0,16,3.1,22.1,9.2c6.2,6.1,9.3,13.5,9.3,22.1
		c0,8.7-3.1,16-9.3,22.1c-6.2,6.1-13.7,9.1-22.5,9.1c-7.8,0-14.8-2.7-21-8.1C460.5,78.7,457.1,70.9,457.1,61.2z M466.3,61.4
		c0,6.7,2.2,12.1,6.7,16.4c4.5,4.3,9.6,6.4,15.4,6.4c6.3,0,11.7-2.2,16-6.6c4.3-4.4,6.5-9.8,6.5-16.2c0-6.4-2.1-11.8-6.4-16.2
		c-4.3-4.4-9.6-6.6-15.9-6.6c-6.3,0-11.6,2.2-15.9,6.6C468.5,49.7,466.3,55,466.3,61.4z"/>
	<path d="M528.7,91.7V27.3l44,46V31.4h9.1v64l-44-45.9v42.2H528.7z"/>
	<path d="M627.5,40.3l-7.4,4.4c-1.4-2.4-2.7-4-3.9-4.7c-1.3-0.8-3-1.2-5-1.2c-2.5,0-4.6,0.7-6.3,2.1c-1.7,1.4-2.5,3.2-2.5,5.3
		c0,2.9,2.2,5.3,6.6,7.1l6,2.5c4.9,2,8.5,4.4,10.7,7.2c2.3,2.9,3.4,6.3,3.4,10.5c0,5.5-1.8,10.1-5.5,13.8c-3.7,3.6-8.3,5.5-13.9,5.5
		c-5.2,0-9.6-1.5-13-4.6c-3.4-3.1-5.5-7.5-6.3-13.1l9.2-2c0.4,3.5,1.1,6,2.2,7.3c1.9,2.6,4.6,3.9,8.2,3.9c2.8,0,5.2-1,7.1-2.9
		c1.9-1.9,2.8-4.3,2.8-7.2c0-1.2-0.2-2.2-0.5-3.2c-0.3-1-0.8-1.9-1.5-2.7c-0.7-0.8-1.6-1.6-2.7-2.3c-1.1-0.7-2.4-1.4-3.9-2.1
		l-5.8-2.4c-8.3-3.5-12.4-8.6-12.4-15.3c0-4.5,1.7-8.3,5.2-11.4c3.5-3.1,7.8-4.6,12.9-4.6C618.2,30.2,623.6,33.6,627.5,40.3z"/>
</g>
<g>
	<path class="st0" d="M92.5,167.8l-7.4,4.4c-1.4-2.4-2.7-4-3.9-4.7c-1.3-0.8-3-1.2-5-1.2c-2.5,0-4.6,0.7-6.3,2.1
		c-1.7,1.4-2.5,3.2-2.5,5.3c0,2.9,2.2,5.3,6.6,7.1l6,2.5c4.9,2,8.5,4.4,10.7,7.2s3.4,6.3,3.4,10.5c0,5.5-1.8,10.1-5.5,13.8
		c-3.7,3.6-8.3,5.5-13.9,5.5c-5.2,0-9.6-1.5-13-4.6c-3.4-3.1-5.5-7.5-6.3-13.1l9.2-2c0.4,3.5,1.1,6,2.2,7.3c1.9,2.6,4.6,3.9,8.2,3.9
		c2.8,0,5.2-1,7.1-2.9c1.9-1.9,2.8-4.3,2.8-7.2c0-1.2-0.2-2.2-0.5-3.2c-0.3-1-0.8-1.9-1.5-2.7c-0.7-0.8-1.6-1.6-2.7-2.3
		c-1.1-0.7-2.4-1.4-3.9-2.1l-5.8-2.4c-8.3-3.5-12.4-8.6-12.4-15.3c0-4.5,1.7-8.3,5.2-11.4c3.5-3.1,7.8-4.6,12.9-4.6
		C83.2,157.6,88.6,161,92.5,167.8z"/>
	<path class="st0" d="M128.1,188.7c0-8.5,3.1-15.8,9.3-21.9c6.2-6.1,13.6-9.1,22.3-9.1c8.6,0,16,3.1,22.1,9.2
		c6.2,6.1,9.3,13.5,9.3,22.1c0,8.7-3.1,16-9.3,22.1c-6.2,6.1-13.7,9.1-22.5,9.1c-7.8,0-14.8-2.7-21-8.1
		C131.6,206.1,128.1,198.3,128.1,188.7z M137.3,188.8c0,6.7,2.2,12.1,6.7,16.4c4.5,4.3,9.6,6.4,15.4,6.4c6.3,0,11.7-2.2,16-6.6
		c4.3-4.4,6.5-9.8,6.5-16.2c0-6.4-2.1-11.8-6.4-16.2c-4.3-4.4-9.6-6.6-15.9-6.6c-6.3,0-11.6,2.2-15.9,6.6
		C139.5,177.1,137.3,182.4,137.3,188.8z"/>
	<path class="st0" d="M237.8,158.8v36.3c0,5.2,0.8,9,2.5,11.4c2.5,3.5,6.1,5.2,10.7,5.2c4.6,0,8.2-1.7,10.7-5.2
		c1.7-2.3,2.5-6.1,2.5-11.4v-36.3h9.1v38.8c0,6.4-2,11.6-5.9,15.7c-4.5,4.6-9.9,6.9-16.4,6.9c-6.5,0-11.9-2.3-16.4-6.9
		c-4-4.1-5.9-9.3-5.9-15.7v-38.8H237.8z"/>
	<path class="st0" d="M330.5,167.3v51.8h-9.1v-51.8h-13.9v-8.6h36.8v8.6H330.5z"/>
	<path class="st0" d="M387.7,182.4h26v-23.6h9.1v60.3h-9.1v-28.2h-26v28.2h-9.1v-60.3h9.1V182.4z"/>
	<path class="st0" d="M523.2,158.8v51.8h17.7v8.6h-26.8v-60.3H523.2z"/>
	<path class="st0" d="M614.4,204.4h-25.8l-6.7,14.6h-9.8l29.8-64.1l28.8,64.1h-10L614.4,204.4z M610.7,195.9l-8.9-20.5l-9.4,20.5
		H610.7z"/>
</g>
<line class="st1" x1="26.1" y1="128.3" x2="647.2" y2="128.3"/>
<line class="st1" x1="448.4" y1="154.1" x2="550.9" y2="103.7"/>
</svg>
