<svg xmlns="http://www.w3.org/2000/svg" viewBox="0 0 22.36 16.57"><defs><style>.cls-1{fill:#fff;}</style></defs><title>quote-01</title><g id="Layer_2" data-name="Layer 2"><g id="Layer_2-2" data-name="Layer 2"><path class="cls-1" d="M13.92,5.81a7.72,7.72,0,0,1,1.43-.51,5.58,5.58,0,0,1,1.29-.17,5.67,5.67,0,0,1,5.72,5.72A5.78,5.78,0,0,1,21.93,13a5.85,5.85,0,0,1-3.11,3.1,5.84,5.84,0,0,1-2.18.43,5.21,5.21,0,0,1-3.17-1,7.32,7.32,0,0,1-2.22-3,7.64,7.64,0,0,1-2.28,3,5.32,5.32,0,0,1-3.18,1,5.35,5.35,0,0,1-4.17-1.79A6.73,6.73,0,0,1,0,10.1,10.59,10.59,0,0,1,1.1,5.32,10,10,0,0,1,4.22,1.68,8.92,8.92,0,0,1,6.84.44a10.61,10.61,0,0,1,3-.44h.64l.75.86A12.21,12.21,0,0,0,6,2.35,6.8,6.8,0,0,0,3.07,5.81,8.83,8.83,0,0,1,4.53,5.3a5.34,5.34,0,0,1,1.26-.17,5.25,5.25,0,0,1,2.89.8A7.71,7.71,0,0,1,11,8.42a12.2,12.2,0,0,1,3.57-6.29A9,9,0,0,1,20.71,0h.64l.75.86a12.12,12.12,0,0,0-5.31,1.5A6.75,6.75,0,0,0,13.92,5.81Z"/></g></g></svg>