<?xml version="1.0" encoding="utf-8"?>
<!-- Generator: Adobe Illustrator 22.0.1, SVG Export Plug-In . SVG Version: 6.00 Build 0)  -->
<svg version="1.1" id="Layer_1" xmlns="http://www.w3.org/2000/svg" xmlns:xlink="http://www.w3.org/1999/xlink" x="0px" y="0px"
	 viewBox="0 0 1807 186.6" style="enable-background:new 0 0 1807 186.6;" xml:space="preserve">
<style type="text/css">
	.st0{fill:#FFFFFF;}
</style>
<g>
	<path class="st0" d="M0,13.2h16.6v77.4c0,7.9,0.8,14.5,2.4,19.8s3.8,9.6,6.5,12.8s6,5.5,9.7,6.9s7.7,2.1,12,2.1
		c4.4,0,8.5-0.7,12.2-2.1c3.7-1.4,7-3.7,9.8-6.9s5-7.5,6.6-12.8s2.4-11.9,2.4-19.8V13.2h16v77c0,10.5-1.2,19.4-3.6,26.6
		c-2.4,7.2-5.7,13-9.9,17.5s-9.2,7.7-14.9,9.6c-5.7,1.9-11.9,2.9-18.6,2.9c-6.7,0-12.9-1-18.7-2.9c-5.8-1.9-10.8-5.1-15-9.6
		S6,124,3.6,116.8S0,100.7,0,90.2V13.2z"/>
	<path class="st0" d="M123,115.8c4.7,4.9,10.2,8.9,16.5,11.9s12.9,4.5,19.7,4.5c8.7,0,15.4-2,20.2-5.9c4.8-3.9,7.2-9.1,7.2-15.5
		c0-3.3-0.6-6.2-1.7-8.5s-2.7-4.3-4.6-6s-4.2-3.2-6.9-4.5c-2.7-1.3-5.5-2.7-8.6-4.2L146,79.4c-3.1-1.3-6.2-2.9-9.4-4.8
		c-3.2-1.9-6.1-4.1-8.6-6.8s-4.6-5.8-6.2-9.5c-1.6-3.7-2.4-7.9-2.4-12.7c0-4.9,1-9.5,3.1-13.8s4.9-8,8.6-11.1c3.7-3.1,8-5.6,13-7.3
		c5-1.7,10.5-2.6,16.5-2.6c7.9,0,15.1,1.5,21.8,4.5c6.7,3,12.3,6.9,17,11.7l-9,10.8c-4-3.9-8.4-6.9-13.3-9.1s-10.4-3.3-16.5-3.3
		c-7.3,0-13.2,1.7-17.7,5.1s-6.7,8.1-6.7,14.1c0,3.2,0.6,5.9,1.9,8.1c1.3,2.2,3,4.1,5.1,5.8c2.1,1.7,4.5,3.1,7,4.4
		c2.5,1.3,5.1,2.4,7.8,3.5l18.6,8c3.7,1.6,7.3,3.4,10.6,5.5c3.3,2.1,6.2,4.5,8.6,7.2s4.3,5.9,5.7,9.6c1.4,3.7,2.1,7.9,2.1,12.7
		c0,5.2-1,10.1-3.1,14.6s-5,8.5-8.9,11.9s-8.5,6.1-14,8s-11.7,2.9-18.6,2.9c-9.2,0-17.7-1.7-25.6-5.2c-7.9-3.5-14.7-8.2-20.4-14.2
		L123,115.8z"/>
	<path class="st0" d="M216.8,78.8c0-10.5,1.5-20,4.4-28.4s7-15.5,12.2-21.4s11.4-10.4,18.5-13.5c7.1-3.1,14.9-4.7,23.3-4.7
		c8,0,15,1.6,21,4.9s10.9,7,14.8,11.3l-9.4,10.6c-3.5-3.7-7.3-6.7-11.5-8.9c-4.2-2.2-9.1-3.3-14.7-3.3c-6.3,0-11.9,1.2-17,3.7
		c-5.1,2.5-9.4,6-13,10.6S239,49.9,237,56.4s-3,13.9-3,22c0,8.3,1,15.7,2.9,22.3s4.6,12.2,8.1,16.9s7.7,8.3,12.7,10.8
		c5,2.5,10.6,3.8,16.9,3.8c6.4,0,12-1.3,16.7-3.8s9.2-6.1,13.5-10.8l9.4,10.2c-5.2,6-11.1,10.7-17.6,14s-14,5-22.4,5
		c-8.3,0-15.9-1.5-22.9-4.6c-7-3.1-13.1-7.5-18.2-13.3s-9.1-12.9-12-21.4C218.2,99,216.8,89.4,216.8,78.8z"/>
	<path class="st0" d="M427.6,113.4h-39.8l-8,31h-30L390.6,14H426l40.8,130.4h-31.2L427.6,113.4z M421.6,90.4l-3-12
		c-1.9-6.5-3.7-13.5-5.4-20.8s-3.5-14.4-5.2-21.2h-0.8c-1.6,6.9-3.2,14-4.9,21.3s-3.4,14.2-5.3,20.7l-3.2,12H421.6z"/>
	<path class="st0" d="M473.6,45.2h24l2,12.6h0.8c4.3-4,8.9-7.5,14-10.5s11-4.5,17.8-4.5c10.8,0,18.6,3.5,23.5,10.6
		s7.3,16.9,7.3,29.4v61.6h-29.4V86.6c0-7.2-1-12.1-2.9-14.8s-5-4-9.3-4c-3.7,0-6.9,0.8-9.6,2.5c-2.7,1.7-5.6,4-8.8,7.1v67h-29.4
		L473.6,45.2L473.6,45.2z"/>
	<path class="st0" d="M583,45.2h24l2,12.6h0.8c4.3-4,8.9-7.5,14-10.5s11-4.5,17.8-4.5c10.8,0,18.6,3.5,23.5,10.6s7.3,16.9,7.3,29.4
		v61.6H643V86.6c0-7.2-1-12.1-2.9-14.8s-5-4-9.3-4c-3.7,0-6.9,0.8-9.6,2.5c-2.7,1.7-5.6,4-8.8,7.1v67H583L583,45.2L583,45.2z"/>
	<path class="st0" d="M686.6,94.8c0-8,1.3-15.2,4-21.7s6.2-11.9,10.5-16.4s9.3-7.9,14.9-10.3s11.4-3.6,17.4-3.6
		c7.1,0,13.2,1.2,18.5,3.6s9.7,5.7,13.2,10s6.2,9.3,7.9,15.1s2.6,12.1,2.6,18.9c0,2.7-0.1,5.1-0.4,7.3c-0.3,2.2-0.5,3.9-0.8,5.1H715
		c1.3,7.6,4.3,13.1,8.9,16.5c4.6,3.4,10.2,5.1,16.9,5.1c7.1,0,14.2-2.2,21.4-6.6l9.8,17.8c-5.1,3.5-10.7,6.2-16.9,8.2
		s-12.3,3-18.3,3c-7.1,0-13.7-1.2-19.8-3.5s-11.5-5.7-16-10.2s-8.1-9.9-10.6-16.3C687.8,110.4,686.6,103,686.6,94.8z M750.6,84.6
		c0-5.7-1.3-10.4-3.8-14s-6.8-5.4-12.8-5.4c-4.7,0-8.8,1.6-12.3,4.7c-3.5,3.1-5.8,8-6.9,14.7H750.6z"/>
	<path class="st0" d="M791,45.2h24l2,12.6h0.8c4.3-4,8.9-7.5,14-10.5s11-4.5,17.8-4.5c10.8,0,18.6,3.5,23.5,10.6s7.3,16.9,7.3,29.4
		v61.6H851V86.6c0-7.2-1-12.1-2.9-14.8s-5-4-9.3-4c-3.7,0-6.9,0.8-9.6,2.5c-2.7,1.7-5.6,4-8.8,7.1v67H791L791,45.2L791,45.2z"/>
	<path class="st0" d="M900.4,4.2h29.4v34.4L929,53.8c3.9-3.5,8-6.2,12.5-8.1s9-2.9,13.7-2.9c6,0,11.4,1.2,16.2,3.6
		s8.9,5.8,12.3,10.1c3.4,4.3,6,9.6,7.8,15.8c1.8,6.2,2.7,13.1,2.7,20.7c0,8.5-1.2,16.1-3.5,22.8s-5.5,12.3-9.4,16.9
		c-3.9,4.6-8.4,8.1-13.4,10.5s-10.2,3.6-15.5,3.6c-4.4,0-8.8-1.1-13.3-3.2c-4.5-2.1-8.6-5.3-12.5-9.6h-0.8l-2.4,10.4h-23L900.4,4.2
		L900.4,4.2z M929.8,116.4c2.7,2.4,5.3,4.1,8,5s5.3,1.4,7.8,1.4c5.1,0,9.4-2.3,13-6.9c3.6-4.6,5.4-12,5.4-22.3
		c0-17.9-5.7-26.8-17.2-26.8c-5.9,0-11.5,3-17,9L929.8,116.4L929.8,116.4z"/>
	<path class="st0" d="M1004.2,94.8c0-8,1.3-15.2,4-21.7s6.2-11.9,10.5-16.4s9.3-7.9,14.9-10.3s11.4-3.6,17.4-3.6
		c7.1,0,13.2,1.2,18.5,3.6s9.7,5.7,13.2,10s6.2,9.3,7.9,15.1c1.7,5.8,2.6,12.1,2.6,18.9c0,2.7-0.1,5.1-0.4,7.3s-0.5,3.9-0.8,5.1
		h-59.4c1.3,7.6,4.3,13.1,8.9,16.5s10.2,5.1,16.9,5.1c7.1,0,14.2-2.2,21.4-6.6l9.8,17.8c-5.1,3.5-10.7,6.2-16.9,8.2s-12.3,3-18.3,3
		c-7.1,0-13.7-1.2-19.8-3.5c-6.1-2.3-11.5-5.7-16-10.2s-8.1-9.9-10.6-16.3C1005.4,110.4,1004.2,103,1004.2,94.8z M1068.2,84.6
		c0-5.7-1.3-10.4-3.8-14s-6.8-5.4-12.8-5.4c-4.7,0-8.8,1.6-12.3,4.7c-3.5,3.1-5.8,8-6.9,14.7H1068.2z"/>
	<path class="st0" d="M1108.6,45.2h24l2,17.4h0.8c3.6-6.8,7.9-11.8,13-15s10.1-4.8,15.2-4.8c2.8,0,5.1,0.2,6.9,0.5s3.4,0.8,4.9,1.5
		l-4.8,25.4c-1.9-0.5-3.6-0.9-5.2-1.2c-1.6-0.3-3.5-0.4-5.6-0.4c-3.7,0-7.6,1.3-11.7,4c-4.1,2.7-7.4,7.4-10.1,14.2v57.6h-29.4
		L1108.6,45.2L1108.6,45.2z"/>
	<path class="st0" d="M1175,161.4c0-8,4.7-14.7,14.2-20v-0.8c-2.7-1.7-4.9-3.9-6.6-6.6c-1.7-2.7-2.6-6.1-2.6-10.2
		c0-3.6,1.1-7,3.2-10.3s4.8-6,8-8.3v-0.8c-3.5-2.4-6.6-5.8-9.3-10.3c-2.7-4.5-4.1-9.6-4.1-15.5c0-6,1.1-11.2,3.4-15.7
		s5.3-8.2,9.1-11.2c3.8-3,8.2-5.2,13.1-6.7s10.1-2.2,15.4-2.2c5.9,0,11,0.8,15.4,2.4h36.2v21.4h-15.8c0.9,1.5,1.7,3.3,2.3,5.6
		c0.6,2.3,0.9,4.7,0.9,7.4c0,5.7-1,10.7-3,14.9s-4.8,7.7-8.3,10.4s-7.7,4.8-12.4,6.1c-4.7,1.3-9.8,2-15.3,2c-3.9,0-7.9-0.7-12-2
		c-1.3,1.1-2.3,2.1-2.8,3.2c-0.5,1.1-0.8,2.5-0.8,4.2c0,2.5,1.1,4.4,3.3,5.6c2.2,1.2,6.1,1.8,11.7,1.8h16c12.3,0,21.6,2,28.1,5.9
		s9.7,10.4,9.7,19.3c0,5.2-1.3,10-3.9,14.3s-6.3,8.1-11.1,11.2c-4.8,3.1-10.6,5.6-17.4,7.4c-6.8,1.8-14.5,2.7-23,2.7
		c-5.9,0-11.3-0.5-16.3-1.5s-9.4-2.5-13.2-4.5c-3.8-2-6.8-4.6-8.9-7.8C1176,169.6,1175,165.8,1175,161.4z M1199.2,156.8
		c0,3.7,2,6.6,6,8.5s9.3,2.9,16,2.9s12.1-1.2,16.4-3.5s6.4-5.2,6.4-8.7c0-3.1-1.3-5.1-3.9-6.2c-2.6-1.1-6.4-1.6-11.3-1.6h-10.2
		c-3.5,0-6.3-0.1-8.4-0.3s-4-0.5-5.6-0.9C1201,150.2,1199.2,153.4,1199.2,156.8z M1218.8,95.2c3.9,0,7.1-1.4,9.7-4.1
		c2.6-2.7,3.9-6.9,3.9-12.5c0-5.2-1.3-9.2-3.9-11.9c-2.6-2.7-5.8-4.1-9.7-4.1c-3.9,0-7.1,1.3-9.7,4c-2.6,2.7-3.9,6.7-3.9,12
		c0,5.6,1.3,9.8,3.9,12.5S1214.9,95.2,1218.8,95.2z"/>
	<path class="st0" d="M1322,14h31.2l21.8,58.6l7.8,22.8h0.8l7.8-22.8l21.2-58.6h31v130.4h-27.4V96.6c0-3.2,0.1-6.7,0.4-10.6
		c0.3-3.9,0.6-7.8,1-11.7c0.4-3.9,0.8-7.8,1.2-11.6c0.4-3.8,0.8-7.3,1.2-10.5h-0.8l-10.8,30.2l-20,50.6h-11.8l-20-50.6l-10.4-30.2
		h-0.8c0.4,3.2,0.8,6.7,1.2,10.5c0.4,3.8,0.8,7.7,1.1,11.6c0.3,3.9,0.6,7.8,0.9,11.7s0.4,7.4,0.4,10.6v47.8h-27L1322,14L1322,14z"/>
	<path class="st0" d="M1461.2,94.8c0-8,1.3-15.2,4-21.7s6.2-11.9,10.5-16.4s9.3-7.9,14.9-10.3s11.4-3.6,17.4-3.6
		c7.1,0,13.2,1.2,18.5,3.6s9.7,5.7,13.2,10s6.2,9.3,7.9,15.1c1.7,5.8,2.6,12.1,2.6,18.9c0,2.7-0.1,5.1-0.4,7.3s-0.5,3.9-0.8,5.1
		h-59.4c1.3,7.6,4.3,13.1,8.9,16.5s10.2,5.1,16.9,5.1c7.1,0,14.2-2.2,21.4-6.6l9.8,17.8c-5.1,3.5-10.7,6.2-16.9,8.2s-12.3,3-18.3,3
		c-7.1,0-13.7-1.2-19.8-3.5c-6.1-2.3-11.5-5.7-16-10.2s-8.1-9.9-10.6-16.3C1462.4,110.4,1461.2,103,1461.2,94.8z M1525.2,84.6
		c0-5.7-1.3-10.4-3.8-14s-6.8-5.4-12.8-5.4c-4.7,0-8.8,1.6-12.3,4.7c-3.5,3.1-5.8,8-6.9,14.7H1525.2z"/>
	<path class="st0" d="M1560.4,94.8c0-8.1,1.2-15.4,3.5-21.8s5.4-11.8,9.2-16.3c3.8-4.5,8.2-7.9,13.2-10.3s10.1-3.6,15.3-3.6
		c5.6,0,10.2,0.9,13.8,2.8c3.6,1.9,7.1,4.4,10.6,7.6l-1.2-15.2V4.2h29.4v140.2h-24l-2-9.8h-0.8c-3.5,3.5-7.5,6.4-12.2,8.7
		s-9.4,3.5-14.2,3.5c-6.1,0-11.7-1.2-16.7-3.6c-5-2.4-9.3-5.8-12.8-10.3s-6.3-9.9-8.2-16.3C1561.3,110.2,1560.4,102.9,1560.4,94.8z
		 M1590.6,94.4c0,9.9,1.6,17.1,4.7,21.6s7.6,6.8,13.3,6.8c3.2,0,6.1-0.7,8.7-2s5.1-3.7,7.5-7V73.2c-2.7-2.4-5.4-4.1-8.2-5
		c-2.8-0.9-5.5-1.4-8.2-1.4c-4.7,0-8.8,2.2-12.4,6.7C1592.4,77.9,1590.6,84.9,1590.6,94.4z"/>
	<path class="st0" d="M1689.8,30.6c-4.9,0-9-1.4-12.2-4.3s-4.8-6.6-4.8-11.1s1.6-8.2,4.8-11c3.2-2.8,7.3-4.2,12.2-4.2
		c5.1,0,9.2,1.4,12.3,4.2c3.1,2.8,4.7,6.5,4.7,11s-1.6,8.2-4.7,11.1C1698.9,29.1,1694.8,30.6,1689.8,30.6z M1675.2,45.2h29.4v99.2
		h-29.4V45.2z"/>
	<path class="st0" d="M1721.8,116.8c0-10.4,4.4-18.5,13.2-24.4c8.8-5.9,23-9.8,42.6-11.8c-0.3-4.4-1.6-7.9-4-10.5s-6.3-3.9-11.6-3.9
		c-4.3,0-8.5,0.8-12.8,2.4c-4.3,1.6-8.8,3.8-13.6,6.6l-10.4-19.4c6.4-3.9,13.1-7,20.1-9.4s14.4-3.6,22.3-3.6
		c12.8,0,22.6,3.6,29.3,10.9c6.7,7.3,10.1,18.6,10.1,33.9v56.8h-24l-2.2-10.2h-0.6c-4.3,3.7-8.8,6.8-13.5,9.1s-9.9,3.5-15.5,3.5
		c-4.5,0-8.6-0.8-12.2-2.3s-6.7-3.7-9.2-6.4s-4.5-5.9-5.9-9.5C1722.4,125,1721.8,121,1721.8,116.8z M1749.8,114.6
		c0,3.2,1,5.6,3.1,7.1s4.8,2.3,8.3,2.3s6.4-0.7,8.8-2.2s4.9-3.5,7.6-6.2V98.2c-10.5,1.5-17.8,3.6-21.8,6.4
		S1749.8,110.7,1749.8,114.6z"/>
</g>
</svg>
